<svg xmlns="http://www.w3.org/2000/svg" viewBox="73 73 124 124" aria-label="Slack" role="img">
  <path d="M99.4 168.3a13.1 13.1 0 1 1-13.1-13.1h13.1zM105.9 168.3a13.1 13.1 0 0 1 26.2 0v32.8a13.1 13.1 0 0 1-26.2 0z" fill="#E01E5A"/>
  <path d="M118.9 99.4A13.1 13.1 0 1 1 132 86.3v13.1zM118.9 105.9a13.1 13.1 0 0 1 0 26.2H86.1a13.1 13.1 0 0 1 0-26.2z" fill="#36C5F0"/>
  <path d="M170.6 118.9A13.1 13.1 0 1 1 183.7 132h-13.1zM164.1 118.9a13.1 13.1 0 0 1-26.2 0V86.1a13.1 13.1 0 0 1 26.2 0z" fill="#2EB67D"/>
  <path d="M151.1 170.6a13.1 13.1 0 1 1-13.1 13.1v-13.1zM151.1 164.1a13.1 13.1 0 0 1 0-26.2h32.8a13.1 13.1 0 0 1 0 26.2z" fill="#ECB22E"/>
</svg>
